# Blender v2.67 (sub 0) OBJ File: ''
# www.blender.org
g Cube.000_Cube.002
v -1.000000 -1.000000 -1.018634
v -1.000000 -1.000000 -3.018634
v 1.000000 -1.000000 -3.018634
v 1.000000 -1.000000 -1.018634
v -1.000000 1.000000 -1.018634
v -1.000000 1.000000 -3.018634
v 1.000000 1.000000 -3.018634
v 1.000000 1.000000 -1.018634
vt 0.250044 0.250043
vt 0.500000 0.250043
vt 0.250043 0.500000
vt 0.749957 0.500000
vt 0.749957 0.749957
vt 0.500000 0.749957
vt 0.500000 0.999913
vt 0.250043 0.999913
vt 0.250043 0.749957
vt 0.000087 0.749956
vt 0.000087 0.500000
vt 0.500000 0.500000
vt 0.250044 0.000087
vt 0.500000 0.000087
vn -1.000000 0.000000 0.000000
vn 0.000000 0.000000 -1.000000
vn 1.000000 -0.000000 0.000000
vn 0.000000 0.000000 1.000000
vn 0.000000 -1.000000 0.000000
vn 0.000000 1.000000 0.000000
s off
f 5/1/1 6/2/1 1/3/1
f 6/4/2 7/5/2 3/6/2
f 7/7/3 8/8/3 4/9/3
f 8/10/4 5/11/4 1/3/4
f 1/3/5 2/12/5 3/6/5
f 8/13/6 7/14/6 6/2/6
f 6/2/1 2/12/1 1/3/1
f 2/12/2 6/4/2 3/6/2
f 3/6/3 7/7/3 4/9/3
f 4/9/4 8/10/4 1/3/4
f 4/9/5 1/3/5 3/6/5
f 5/1/6 8/13/6 6/2/6
g Cube.001
v -1.000000 -1.000000 3.037524
v -1.000000 -1.000000 1.037524
v 1.000000 -1.000000 1.037524
v 1.000000 -1.000000 3.037524
v -1.000000 1.000000 3.037524
v -1.000000 1.000000 1.037524
v 1.000000 1.000000 1.037524
v 1.000000 1.000000 3.037524
vt 0.250044 0.250043
vt 0.500000 0.250043
vt 0.250043 0.500000
vt 0.749957 0.500000
vt 0.749957 0.749957
vt 0.500000 0.749957
vt 0.500000 0.999913
vt 0.250043 0.999913
vt 0.250043 0.749957
vt 0.000087 0.749956
vt 0.000087 0.500000
vt 0.500000 0.500000
vt 0.250044 0.000087
vt 0.500000 0.000087
s off
f 13/15/1 14/16/1 9/17/1
f 14/18/2 15/19/2 11/20/2
f 15/21/3 16/22/3 12/23/3
f 16/24/4 13/25/4 9/17/4
f 9/17/5 10/26/5 11/20/5
f 16/27/6 15/28/6 14/16/6
f 14/16/1 10/26/1 9/17/1
f 10/26/2 14/18/2 11/20/2
f 11/20/3 15/21/3 12/23/3
f 12/23/4 16/24/4 9/17/4
f 12/23/5 9/17/5 11/20/5
f 13/15/6 16/27/6 14/16/6
